<svg width="54" height="18" viewBox="0 0 54 18" fill="none" xmlns="http://www.w3.org/2000/svg">
<path d="M5.304 17.288C2.616 17.288 0.768 15.872 0.768 13.592C0.768 12.56 1.2 11.672 2.088 10.952C2.952 10.232 4.056 9.872 5.4 9.872C6.696 9.872 7.776 10.256 8.64 11.024V9.752C8.64 8.288 7.944 7.568 6.528 7.568C5.256 7.568 4.464 8.216 4.104 9.536L0.888 9.008C1.584 6.488 3.696 4.88 6.768 4.88C10.152 4.88 12.12 6.512 12.12 9.896V17H8.856V15.56C8.064 16.64 6.648 17.288 5.304 17.288ZM6.192 14.984C7.128 14.984 7.944 14.504 8.64 13.52V13.28C7.944 12.488 7.128 12.104 6.192 12.104C5.04 12.104 4.272 12.704 4.272 13.544C4.272 14.408 5.04 14.984 6.192 14.984ZM29.4137 4.88C32.2937 4.88 33.8297 6.608 33.8297 9.584V17H30.3737V10.088C30.3737 8.504 29.7257 7.712 28.4297 7.712C27.0617 7.712 26.0777 8.672 26.0777 10.328V17H22.6217V10.088C22.6217 8.504 21.9737 7.712 20.6777 7.712C19.3097 7.712 18.3257 8.672 18.3257 10.328V17H14.8697V5.168H18.1337V6.848C18.9737 5.528 20.1497 4.88 21.6857 4.88C23.4137 4.88 24.6617 5.552 25.4537 6.872C26.3417 5.552 27.6617 4.88 29.4137 4.88ZM40.4837 17.288C37.7957 17.288 35.9477 15.872 35.9477 13.592C35.9477 12.56 36.3797 11.672 37.2677 10.952C38.1317 10.232 39.2357 9.872 40.5797 9.872C41.8757 9.872 42.9557 10.256 43.8197 11.024V9.752C43.8197 8.288 43.1237 7.568 41.7077 7.568C40.4357 7.568 39.6437 8.216 39.2837 9.536L36.0677 9.008C36.7637 6.488 38.8757 4.88 41.9477 4.88C45.3317 4.88 47.2997 6.512 47.2997 9.896V17H44.0357V15.56C43.2437 16.64 41.8277 17.288 40.4837 17.288ZM41.3717 14.984C42.3077 14.984 43.1237 14.504 43.8197 13.52V13.28C43.1237 12.488 42.3077 12.104 41.3717 12.104C40.2197 12.104 39.4517 12.704 39.4517 13.544C39.4517 14.408 40.2197 14.984 41.3717 14.984ZM53.5054 17H50.0494V0.319999H53.5054V17Z" fill="#6A35EE"/>
</svg>
